# xmcd
#
# Track frame offsets: 
#        150
#        15175
#        31246
#        45320
#        63916
#        85533
#        102344
#        114526
#        136576
#        155113
#        171290
#        188466
#
# Disc length: 2786 seconds
#
# Revision: 0
# Processed by: cddbd v1.5.2PL0 Copyright (c) Steve Scherf et al.
# Submitted via: ExactAudioCopy v1.3
#
DISCID=820ae00c
DTITLE=Abalone Dots - From a Safe Distance
DYEAR=2007
DGENRE=Bluegrass
TTITLE0=From a Safe Distance
TTITLE1=Slavonian Land
TTITLE2=Alive But Not Amused
TTITLE3=Long Lonely Road
TTITLE4=The Trip
TTITLE5=The Messenger
TTITLE6=Lose Again
TTITLE7=Speak With an Evil
TTITLE8=Sour Summer Nights
TTITLE9=Under the Rain
TTITLE10=This is Home
TTITLE11=Daddy's Waltz
EXTD=
EXTT0=
EXTT1=
EXTT2=
EXTT3=
EXTT4=
EXTT5=
EXTT6=
EXTT7=
EXTT8=
EXTT9=
EXTT10=
EXTT11=
PLAYORDER=
